<svg width="40" height="40" viewBox="0 0 40 40" fill="none" xmlns="http://www.w3.org/2000/svg">
<path d="M9.77932 36.0387C10.0417 36.1767 10.337 36.2401 10.6329 36.2221C10.9289 36.204 11.2142 36.1052 11.4579 35.9363L32.5829 21.3113C32.7982 21.1611 32.9739 20.9612 33.0953 20.7285C33.2167 20.4958 33.28 20.2372 33.28 19.9748C33.28 19.7123 33.2167 19.4537 33.0953 19.221C32.9739 18.9883 32.7982 18.7884 32.5829 18.6382L11.4579 4.01319C11.2142 3.8445 10.9289 3.74572 10.633 3.72754C10.3371 3.70936 10.0418 3.77248 9.77921 3.91006C9.5166 4.04764 9.29664 4.25444 9.14313 4.50806C8.98962 4.76169 8.90842 5.05247 8.90832 5.34894L8.90832 34.5989C8.90827 34.8956 8.98941 35.1865 9.14295 35.4403C9.29649 35.6941 9.51656 35.9011 9.77932 36.0387ZM12.1583 8.45106L28.8032 19.9739L12.1583 31.4968L12.1583 8.45106Z" fill="#457C30"/>
</svg>
