<svg width="48" height="48" viewBox="0 0 48 48" fill="none" xmlns="http://www.w3.org/2000/svg">
<path d="M45.0195 7.65109L38.9772 1.61446C38.5509 1.18636 38.0443 0.846684 37.4864 0.614957C36.9285 0.38323 36.3303 0.264015 35.7262 0.26416C34.4951 0.26416 33.3377 0.74641 32.4696 1.61446L25.9678 8.11632C25.5397 8.54255 25.2 9.04916 24.9683 9.60706C24.7365 10.165 24.6173 10.7631 24.6175 11.3673C24.6175 12.5984 25.0997 13.7558 25.9678 14.6239L30.7222 19.3783C29.6093 21.8313 28.062 24.0628 26.155 25.9652C24.2528 27.8769 22.0214 29.4298 19.568 30.5494L14.8136 25.795C14.3874 25.3669 13.8808 25.0273 13.3229 24.7955C12.765 24.5638 12.1668 24.4446 11.5627 24.4447C10.3315 24.4447 9.17413 24.927 8.30608 25.795L1.79854 32.2912C1.36991 32.7182 1.02995 33.2258 0.798213 33.7847C0.566476 34.3436 0.447539 34.9428 0.448245 35.5478C0.448245 36.779 0.930495 37.9364 1.79854 38.8044L7.8295 44.8354C9.21384 46.2254 11.1258 47.014 13.0889 47.014C13.503 47.014 13.9002 46.98 14.2916 46.9119C21.9396 45.6524 29.5251 41.5844 35.6468 35.4684C41.7629 29.358 45.8251 21.7782 47.1016 14.1076C47.4874 11.7644 46.7102 9.35315 45.0195 7.65109Z" fill="#2C6F2F"/>
</svg>
