<svg width="40" height="40" viewBox="0 0 40 40" fill="none" xmlns="http://www.w3.org/2000/svg">
<path d="M30.364 3.90955C30.1016 3.77154 29.8063 3.7081 29.5104 3.72615C29.2144 3.7442 28.9291 3.84304 28.6854 4.01193L7.56037 18.6369C7.34515 18.7871 7.16939 18.9871 7.04802 19.2198C6.92666 19.4525 6.86328 19.711 6.86328 19.9735C6.86328 20.2359 6.92666 20.4945 7.04802 20.7272C7.16939 20.9599 7.34515 21.1599 7.56037 21.3101L28.6854 35.9351C28.9292 36.1037 29.2145 36.2025 29.5104 36.2207C29.8063 36.2389 30.1015 36.1758 30.3641 36.0382C30.6267 35.9006 30.8467 35.6938 31.0002 35.4402C31.1537 35.1866 31.2349 34.8958 31.235 34.5993V5.3493C31.235 5.05268 31.1539 4.7617 31.0004 4.50791C30.8468 4.25411 30.6268 4.04719 30.364 3.90955ZM27.985 31.4972L11.3401 19.9743L27.985 8.45143V31.4972Z" fill="#457C30"/>
</svg>
