<svg width="175" height="139" viewBox="0 0 175 139" fill="none" xmlns="http://www.w3.org/2000/svg">
<g clip-path="url(#clip0_21_3744)">
<path d="M45.3771 64.2105C38.4086 61.8689 31.3864 59.6868 24.4893 57.1677C12.196 52.6972 2.61866 45.548 0.635294 31.6043C-0.240245 25.4308 0.742504 19.4701 4.01237 14.0771C6.04934 10.7243 7.87189 7.42461 7.38945 3.3444C7.22864 1.99615 7.62174 0.80757 9.12266 0.293108C10.8023 -0.274574 11.9637 0.594689 12.8571 1.76553C15.448 5.17162 15.8947 9.10992 15.2872 13.1547C14.7333 16.9688 14.3759 20.7651 14.4295 24.6147C14.501 30.0432 17.2169 33.5202 22.0771 35.7555C30.6538 39.676 39.7308 40.2615 48.9508 40.1018C53.9181 40.0131 58.6174 39.0197 63.4954 37.6537C80.5416 32.8284 97.4628 33.6799 114.723 38.5229C128.518 42.3903 142.901 41.4323 155.713 33.7863C161.109 30.5576 160.787 24.4906 160.073 19.0266C159.59 15.3544 159.412 11.7177 159.447 8.04551C159.465 5.72157 160.198 3.64598 161.663 1.85423C162.574 0.736609 163.664 -0.310054 165.344 0.239888C167.006 0.78983 167.452 2.06711 167.291 3.66372C166.952 6.98111 167.988 9.89048 169.739 12.7111C178.173 26.2646 174.707 42.2661 161.431 51.5264C153.658 56.9371 144.474 59.0304 135.701 62.0463C132.145 63.2703 128.553 64.3347 125.105 65.9491C130.144 64.3879 135.254 63.6961 140.454 63.767C145.975 63.838 148.905 67.865 147.297 73.0983C144.724 81.5603 137.827 86.7049 127.624 87.2017C124.211 87.3613 122.728 88.3548 121.621 91.7076C119.941 96.8168 117.511 101.749 114.938 106.521C111.025 113.776 107.791 121.227 106.415 129.405C105.825 132.882 103.377 135.029 100.143 136.058C91.6556 138.754 83.0789 138.825 74.5915 136.076C70.7856 134.851 68.427 132.155 67.891 128.075C67.0691 121.759 64.4246 115.994 61.7444 110.388C58.7246 104.055 54.9008 98.0763 52.9532 91.2819C52.0956 88.2838 50.684 87.2904 47.6106 87.2371C39.1054 87.113 32.3691 83.6714 28.3845 75.8658C24.5429 68.344 28.8134 62.4898 36.1036 63.7848C39.0875 64.317 42.143 64.4234 45.1627 64.7073C45.2342 64.5476 45.3057 64.3702 45.3771 64.2105ZM101.197 101.536C100.822 100.826 100.554 100.045 100.072 99.4423C98.6421 97.6683 97.5342 95.7701 100 94.1735C102.305 92.6833 103.574 94.7767 104.646 96.2491C106.397 98.6795 107.898 101.305 109.774 104.268C114.241 95.6637 118.887 87.5565 117.761 77.2318C114.062 78.9703 110.632 80.0347 106.986 77.8881C102.823 75.44 102.448 73.4531 105.754 70.0648C108.666 67.0844 112.043 64.8847 116.403 65.5765C119.423 66.0555 119.762 64.7073 119.333 62.4188C118.547 58.1967 117.547 53.9923 116.885 49.7524C116.421 46.7366 114.813 44.9448 112.097 43.7385C107.326 41.6274 102.269 40.7937 97.1411 40.3502C86.188 39.4099 75.2705 39.4809 64.6747 42.887C62.2804 43.6676 59.2607 44.4304 58.5281 47.0736C57.0808 52.2892 56.2231 57.6467 55.2225 62.9687C54.8651 64.8492 55.3118 65.9491 57.7598 65.5233C62.9772 64.6186 66.6224 67.4215 69.8565 71.0405C71.7684 73.2048 71.3574 74.961 69.2311 76.735C65.4073 79.946 61.3512 79.467 56.9914 77.3382C55.9015 87.7161 60.3685 95.8411 64.9963 104.232C66.801 101.305 68.1947 98.7682 69.8565 96.4442C71.0179 94.8121 72.3402 92.5946 74.8596 94.3332C77.4147 96.1072 75.7172 97.8812 74.4843 99.602C71.6433 103.54 69.6242 107.691 69.5349 112.801C69.4455 117.608 71.5718 119.435 76.0925 119.435C82.6858 119.418 89.297 119.524 95.8904 119.542C104.092 119.56 106.754 118.69 104.431 107.958C103.967 105.811 103.306 103.647 101.501 102.086C101.412 101.873 101.304 101.695 101.197 101.536ZM165.54 17.5187C165.665 18.9734 165.773 19.8959 165.826 20.8184C166.416 32.4026 162.771 37.8488 151.889 41.9823C145.51 44.4126 138.935 45.6012 132.127 45.6722C121.317 45.7609 121.388 45.7431 123.8 56.0679C124.408 58.6402 125.301 59.5981 128.053 58.6402C135.468 56.0501 142.991 53.7971 150.37 51.1184C155.391 49.2912 159.84 46.4173 163.396 42.3193C169.328 35.4539 170.418 24.9695 165.54 17.5187ZM8.7653 17.7316C2.77947 29.8126 7.21077 41.9113 19.1467 48.6348C25.9009 52.4311 33.4233 54.2938 40.6957 56.742C49.9335 59.8465 49.9156 59.7223 51.9883 50.4797C52.7388 47.1446 52.6495 45.3529 48.1824 45.619C38.6408 46.1866 29.3315 44.8916 20.3975 41.0952C12.732 37.8311 8.85464 32.3139 8.7653 24.0825C8.74743 22.344 8.7653 20.5877 8.7653 17.7316ZM87.546 125.148C83.8651 125.148 80.1843 125.13 76.5034 125.148C75.4849 125.148 74.1091 124.491 73.6803 126.035C73.3229 127.294 73.3765 128.696 74.5379 129.512C75.6815 130.328 76.968 131.162 78.3081 131.445C84.1689 132.669 90.0654 132.581 95.944 131.57C97.4806 131.303 99.1066 130.771 100.161 129.476C100.983 128.483 101.59 127.259 101.019 125.946C100.429 124.58 99.1424 125.13 98.0703 125.13C94.586 125.165 91.066 125.165 87.546 125.148ZM37.3901 69.6567C35.8891 69.639 33.87 68.5391 32.9052 70.0115C31.8509 71.6436 33.3697 73.3467 34.2453 74.8014C37.0506 79.467 41.6606 81.1168 46.7351 81.7909C48.0931 81.9683 49.9692 82.607 50.7733 81.2233C51.6488 79.7154 51.3808 77.8349 50.3087 76.2383C47.2354 71.6968 43.3044 68.823 37.3901 69.6567ZM136.969 69.6922C131.18 68.8407 127.303 71.6436 124.497 76.2028C122.764 79.0235 123.711 81.9506 126.248 81.8442C131.734 81.6313 136.773 80.2121 140.025 75.3336C141.061 73.7724 142.794 71.9984 141.794 70.1712C140.811 68.3795 138.577 69.7277 136.969 69.6922Z" fill="white" stroke="white"/>
<path d="M101.501 102.05C101.233 107.141 97.838 110.352 94.3537 113.421C93.228 114.415 91.6734 114.734 90.3869 113.617C89.3863 112.747 89.1183 111.594 89.4042 110.157C90.512 104.48 95.2649 100.932 101.197 101.536C101.304 101.695 101.412 101.873 101.501 102.05Z" fill="white" stroke="white"/>
<path d="M85.1694 110.867C85.1516 113.936 83.0431 115.213 80.4344 113.51C77.3075 111.47 75.0739 108.454 73.716 105.084C72.626 102.387 74.0376 100.791 77.1109 101.27C80.8096 101.855 85.1694 107.106 85.1694 110.867Z" fill="white" stroke="white"/>
<path d="M70.2853 59.2433C72.9477 60.4141 74.0376 62.8977 74.5737 65.541C74.931 67.2263 73.6088 68.1843 72.0007 68.3262C70.3568 68.4681 66.8725 63.767 67.1584 61.8333C67.4086 60.2367 68.4092 59.3142 70.2853 59.2433Z" fill="white" stroke="white"/>
<path d="M107.683 62.2949C106.772 64.7253 105.986 67.5991 103.002 68.291C101.269 68.6813 99.7678 66.9782 100.286 65.2575C101.019 62.7561 101.876 59.829 105.093 59.35C106.772 59.1017 107.558 60.5031 107.683 62.2949Z" fill="white" stroke="white"/>
</g>
<defs>
<clipPath id="clip0_21_3744">
<rect width="174" height="138" fill="white" transform="translate(0.331543 0.0800781)"/>
</clipPath>
</defs>
</svg>
