<svg width="171" height="171" viewBox="0 0 171 171" fill="none" xmlns="http://www.w3.org/2000/svg">
<path d="M56.5952 32.5708L59.5862 39.8755C61.4508 44.4177 63.9849 55.7705 63.4005 61.1255C56.1596 65.588 51.7183 69.9442 48.2918 73.578C44.1055 70.1939 35.8233 64.4458 22.064 64.4458H16.7515V69.7583C16.7515 79.9264 20.4224 88.1874 21.7346 91.0083C20.4065 93.808 16.7515 101.777 16.7515 112.258V117.571H22.064C35.7171 117.571 44.1002 111.801 48.2971 108.439C54.5818 114.915 63.544 121.741 74.8596 126.868C74.3602 130.167 73.9671 134.773 75.3537 140.149L76.3524 144.133H80.5015C87.0571 144.133 92.7043 140.877 97.2677 137.992C101.002 135.623 102.809 133.965 103.744 133.174C124.871 132.43 138.36 121.035 145.58 109.767C153.049 98.1271 154.876 86.5246 154.876 86.5246L155.041 85.1964L154.547 83.8683C154.547 83.8683 142.381 50.458 109.391 48.8377C105.885 44.5877 100.981 41.0602 94.1174 38.2127C85.9999 34.8552 75.7893 32.5708 64.564 32.5708H56.5952ZM72.0333 43.8599C78.7377 44.6036 85.0065 45.9583 89.963 48.0089C96.7524 50.8139 101.481 54.8355 102.58 56.6417L104.078 59.1333H107.064C133.605 59.1333 143.152 84.2614 143.922 86.3599C143.55 88.3096 142.01 95.7205 136.617 104.125C130.45 113.73 120.467 122.883 101.751 122.883H99.7593L98.2665 124.211C98.2665 124.211 95.4615 126.602 91.6258 129.025C89.6071 130.294 87.8912 130.523 85.814 131.351C86.0265 128.924 85.814 125.375 85.814 125.375L86.9774 120.726L82.6583 119.228C69.5046 114.208 58.3165 104.746 52.6108 98.1483L48.9558 93.8292L44.9715 97.8136C44.9715 97.8136 37.8952 102.775 28.7046 105.118C30.0752 98.8921 32.1896 93.3352 32.1896 93.3352L33.353 91.0083L32.1896 88.6814C32.1896 88.6814 29.8893 82.5827 28.5399 76.0642C38.3308 78.2264 44.9715 84.203 44.9715 84.203L48.9558 88.1874L52.6108 83.8683C57.3655 78.4974 70.1687 65.1099 88.9696 62.6183L87.4715 52.158C82.3874 52.8274 77.9515 54.2989 73.6962 55.983C73.4252 51.5205 73.1968 47.6796 72.0333 43.8599ZM120.345 80.3833C118.232 80.3833 116.205 81.2229 114.71 82.7173C113.216 84.2117 112.376 86.2386 112.376 88.3521C112.376 90.4655 113.216 92.4924 114.71 93.9868C116.205 95.4812 118.232 96.3208 120.345 96.3208C122.459 96.3208 124.486 95.4812 125.98 93.9868C127.474 92.4924 128.314 90.4655 128.314 88.3521C128.314 86.2386 127.474 84.2117 125.98 82.7173C124.486 81.2229 122.459 80.3833 120.345 80.3833Z" fill="white"/>
</svg>
