<svg width="144" height="144" viewBox="0 0 144 144" fill="none" xmlns="http://www.w3.org/2000/svg">
<path d="M5.78248 2.28125C7.04426 3.31207 7.59867 4.59104 7.78985 6.2518C9.54869 21.1795 17.0811 32.0031 30.9033 38.2643C31.8019 38.6652 32.7386 39.047 34.3063 39.696C30.5974 33.053 28.5901 26.5245 27.8636 19.6333C27.5577 16.8654 27.5004 14.0784 27.3856 11.2913C27.3092 9.53514 27.9974 8.12254 29.8901 8.02709C31.993 7.91256 32.7195 9.4206 32.7769 11.2723C33.0254 18.0107 33.9813 24.5583 36.199 30.9914C39.7167 41.1659 47.3829 45.461 57.3816 46.2054C60.8992 46.4727 64.3213 44.5256 67.992 44.3538C73.7082 44.1056 79.3097 44.4111 84.8539 46.0336C91.0099 47.828 101.506 42.5403 105.348 35.9736C109.478 28.9106 110.759 21.1223 111.179 13.1239C111.294 10.9477 110.778 7.89347 114.142 8.08436C117.469 8.29434 116.628 11.3295 116.57 13.4675C116.322 23.3557 114.773 29.3497 110.032 39.2379C111.16 39.3333 111.963 38.7798 112.823 38.398C126.798 32.1558 134.426 21.2941 136.204 6.23271C136.396 4.57195 136.95 3.29298 138.212 2.26216C138.843 2.26216 139.454 2.26216 140.085 2.26216C142.762 4.07563 141.691 6.63358 141.347 9.00064C139.416 21.7904 133.585 32.1749 122.535 39.3333C115.615 43.8193 107.967 46.6063 100.091 48.8207C98.1408 49.3742 96.1717 49.8706 93.4761 50.5769C95.2923 52.2949 96.7834 53.6693 98.1982 55.0819C99.4217 56.3036 100.358 55.1392 101.2 54.6429C107.375 51.1114 113.837 49.0497 121.044 50.0042C124.906 50.5196 128.462 51.7604 131.654 53.9938C133.471 55.2728 134.369 56.9908 133.394 59.0715C129.456 67.3944 123.376 73.6175 114.773 77.2253C108.809 76.08 108.139 79.6306 107.795 84.3647C107.47 88.9079 105.004 92.9548 102.997 97.0208C97.1849 108.78 91.6599 120.634 88.5245 133.462C87.6833 136.879 85.1216 138.845 82.0627 140.067C75.3332 142.758 68.5081 142.739 61.7978 140.029C58.5477 138.712 56.0815 136.478 55.2212 132.756C52.6977 121.741 48.3197 111.414 43.2726 101.316C40.5578 95.8946 37.499 90.6069 36.046 84.6129C35.4916 82.3603 36.4666 79.5924 35.2622 77.9889C34.0769 76.3854 31.1327 78.0462 29.1063 77.2063C20.5988 73.6748 14.6149 67.4708 10.6384 59.3006C9.43399 56.819 10.6575 54.891 12.837 53.5548C20.3312 48.897 28.2651 48.8016 36.3519 51.6077C38.4931 52.3522 40.577 53.383 42.4696 54.5856C44.4579 55.8646 45.7388 55.5019 47.0962 53.7075C47.8991 52.6576 49.0462 51.8749 50.4418 50.596C44.7447 48.9352 39.4872 47.6753 34.4401 45.7282C24.4224 41.8722 15.4179 36.6609 9.35752 27.3835C5.72512 21.8477 3.75599 15.7009 2.62803 9.2488C2.47509 8.35161 2.22656 7.47351 2.01626 6.57631C2.01626 6.36633 2.0545 6.15635 2.01626 5.96546C1.34714 2.81575 2.5898 1.57495 5.78248 2.28125ZM72.2935 49.9469C62.9257 49.7178 54.8771 52.1994 49.3712 59.8351C41.8196 70.3151 37.8431 81.3486 45.7197 93.6611C47.555 96.5054 48.8359 99.7124 50.3271 102.767C54.5521 111.414 58.1463 120.31 60.2875 129.682C61.0713 133.061 62.8875 134.703 65.8508 135.543C69.2729 136.497 72.7523 136.593 76.2891 135.963C80.4759 135.218 82.9612 133.29 84.0127 128.842C87.0907 115.785 93.0555 103.817 99.1923 92.0195C103.819 83.1239 103.035 75.0683 98.6952 66.4018C93.1128 55.1964 84.5289 49.546 72.2935 49.9469ZM28.246 55.2728C23.7341 55.3873 20.79 55.6928 17.9797 56.9526C16.3929 57.6589 15.9914 58.3843 17.1002 59.9496C19.0885 62.7367 21.2871 65.3328 23.8297 67.6044C25.5312 69.1124 27.3283 70.506 29.4313 71.4222C33.446 73.1594 36.8107 71.804 38.474 67.8717C39.3152 65.8864 40.252 63.9393 41.227 62.0113C41.7049 61.0568 41.8961 60.4269 40.6534 59.8351C36.2372 57.7353 32.0313 54.9101 28.246 55.2728ZM115.94 55.311C113.473 55.1583 110.051 56.4372 106.686 58.1553C102.06 60.5223 102.041 60.446 104.201 64.9701C104.947 66.5354 105.654 68.1389 106.285 69.7615C106.686 70.7923 107.164 71.594 108.369 71.7468C111.064 72.1095 113.626 72.224 116.092 70.6205C120.49 67.7571 123.969 64.0347 126.951 59.7778C127.85 58.4989 127.621 57.8307 126.282 57.2008C123.453 55.8646 120.432 55.3492 115.94 55.311Z" fill="white" stroke="white" stroke-width="3"/>
<path d="M68.402 120.824C68.4024 120.824 68.4038 120.831 68.4052 120.845C68.4024 120.83 68.4017 120.824 68.402 120.824ZM66.9825 122.778C66.9803 122.778 66.9791 122.778 66.9791 122.778C66.9791 122.778 66.9802 122.778 66.9825 122.778ZM69.0697 122.724C70.6272 122.704 72.1778 122.718 73.7866 122.732C74.1057 122.735 74.427 122.738 74.7512 122.741C74.1719 123.321 73.659 123.439 73.5341 123.442H73.534H73.531H73.528H73.525H73.5219H73.5189H73.5159H73.5129H73.5098H73.5068H73.5038H73.5008H73.4977H73.4947H73.4917H73.4887H73.4856H73.4826H73.4796H73.4766H73.4735H73.4705H73.4675H73.4645H73.4614H73.4584H73.4554H73.4524H73.4493H73.4463H73.4433H73.4403H73.4372H73.4342H73.4312H73.4282H73.4252H73.4221H73.4191H73.4161H73.4131H73.41H73.407H73.404H73.401H73.3979H73.3949H73.3919H73.3889H73.3858H73.3828H73.3798H73.3768H73.3737H73.3707H73.3677H73.3647H73.3616H73.3586H73.3556H73.3526H73.3495H73.3465H73.3435H73.3405H73.3374H73.3344H73.3314H73.3284H73.3253H73.3223H73.3193H73.3163H73.3132H73.3102H73.3072H73.3042H73.3011H73.2981H73.2951H73.2921H73.289H73.286H73.283H73.28H73.2769H73.2739H73.2709H73.2679H73.2649H73.2618H73.2588H73.2558H73.2528H73.2497H73.2467H73.2437H73.2407H73.2376H73.2346H73.2316H73.2286H73.2255H73.2225H73.2195H73.2165H73.2134H73.2104H73.2074H73.2044H73.2013H73.1983H73.1953H73.1923H73.1892H73.1862H73.1832H73.1802H73.1771H73.1741H73.1711H73.1681H73.165H73.162H73.159H73.156H73.1529H73.1499H73.1469H73.1439H73.1408H73.1378H73.1348H73.1318H73.1287H73.1257H73.1227H73.1197H73.1167H73.1136H73.1106H73.1076H73.1046H73.1015H73.0985H73.0955H73.0925H73.0894H73.0864H73.0834H73.0804H73.0773H73.0743H73.0713H73.0683H73.0652H73.0622H73.0592H73.0562H73.0531H73.0501H73.0471H73.0441H73.041H73.038H73.035H73.032H73.0289H73.0259H73.0229H73.0199H73.0168H73.0138H73.0108H73.0078H73.0047H73.0017H72.9987H72.9957H72.9926H72.9896H72.9866H72.9836H72.9805H72.9775H72.9745H72.9715H72.9685H72.9654H72.9624H72.9594H72.9564H72.9533H72.9503H72.9473H72.9443H72.9412H72.9382H72.9352H72.9322H72.9291H72.9261H72.9231H72.9201H72.917H72.914H72.911H72.908H72.9049H72.9019H72.8989H72.8959H72.8928H72.8898H72.8868H72.8838H72.8807H72.8777H72.8747H72.8717H72.8686H72.8656H72.8626H72.8596H72.8565H72.8535H72.8505H72.8475H72.8444H72.8414H72.8384H72.8354H72.8323H72.8293H72.8263H72.8233H72.8203H72.8172H72.8142H72.8112H72.8082H72.8051H72.8021H72.7991H72.7961H72.793H72.79H72.787H72.784H72.7809H72.7779H72.7749H72.7719H72.7688H72.7658H72.7628H72.7598H72.7567H72.7537H72.7507H72.7477H72.7446H72.7416H72.7386H72.7356H72.7325H72.7295H72.7265H72.7235H72.7204H72.7174H72.7144H72.7114H72.7083H72.7053H72.7023H72.6993H72.6962H72.6932H72.6902H72.6872H72.6841H72.6811H72.6781H72.6751H72.672H72.669H72.666H72.663H72.66H72.6569H72.6539H72.6509H72.6479H72.6448H72.6418H72.6388H72.6358H72.6327H72.6297H72.6267H72.6237H72.6206H72.6176H72.6146H72.6116H72.6085H72.6055H72.6025H72.5995H72.5964H72.5934H72.5904H72.5874H72.5843H72.5813H72.5783H72.5753H72.5722H72.5692H72.5662H72.5632H72.5601H72.5571H72.5541H72.5511H72.548H72.545H72.542H72.539H72.5359H72.5329H72.5299H72.5269H72.5238H72.5208H72.5178H72.5148H72.5118H72.5087H72.5057H72.5027H72.4997H72.4966H72.4936H72.4906H72.4876H72.4845H72.4815H72.4785H72.4755H72.4724H72.4694H72.4664H72.4634H72.4603H72.4573H72.4543H72.4513H72.4482H72.4452H72.4422H72.4392H72.4361H72.4331H72.4301H72.4271H72.424H72.421H72.418H72.415H72.4119H72.4089H72.4059H72.4029H72.3998H72.3968H72.3938H72.3908H72.3877H72.3847H72.3817H72.3787H72.3756H72.3726H72.3696H72.3666H72.3635H72.3605H72.3575H72.3545H72.3515H72.3484H72.3454H72.3424H72.3394H72.3363H72.3333H72.3303H72.3273H72.3242H72.3212H72.3182H72.3152H72.3121H72.3091H72.3061H72.3031H72.3H72.297H72.294H72.291H72.2879H72.2849H72.2819H72.2789H72.2758H72.2728H72.2698H72.2668H72.2637H72.2607H72.2577H72.2547H72.2516H72.2486H72.2456H72.2426H72.2395H72.2365H72.2335H72.2305H72.2274H72.2244H72.2214H72.2184H72.2153H72.2123H72.2093H72.2063H72.2033H72.2002H72.1972H72.1942H72.1912H72.1881H72.1851H72.1821H72.1791H72.176H72.173H72.17H72.167H72.1639H72.1609H72.1579H72.1549H72.1518H72.1488H72.1458H72.1428H72.1397H72.1367H72.1337H72.1307H72.1276H72.1246H72.1216H72.1186H72.1155H72.1125H72.1095H72.1065H72.1034H72.1004H72.0974H72.0944H72.0913H72.0883H72.0853H72.0823H72.0792H72.0762H72.0732H72.0702H72.0671H72.0641H72.0611H72.0581H72.0551H72.052H72.049H72.046H72.043H72.0399H72.0369H72.0339H72.0309H72.0278H72.0248H72.0218H72.0188H72.0157H72.0127H72.0097H72.0067C70.6295 123.442 69.8411 123.4 69.338 123.325C69.2588 123.168 69.1708 122.972 69.0697 122.724ZM77.2603 122.757C77.2601 122.757 77.2538 122.756 77.242 122.755C77.2546 122.755 77.2605 122.756 77.2603 122.757Z" fill="white" stroke="white" stroke-width="10"/>
<mask id="path-3-inside-1_21_3751" fill="white">
<path d="M54.6285 88.5642C51.2255 88.5451 47.6887 85.0327 47.5931 81.5776C47.5167 78.9433 49.3329 77.1489 52.0476 77.168C55.5653 77.1871 59.0447 80.585 59.1021 84.0783C59.1212 86.6171 57.1712 88.5833 54.6285 88.5642Z"/>
</mask>
<path d="M54.6285 88.5642C51.2255 88.5451 47.6887 85.0327 47.5931 81.5776C47.5167 78.9433 49.3329 77.1489 52.0476 77.168C55.5653 77.1871 59.0447 80.585 59.1021 84.0783C59.1212 86.6171 57.1712 88.5833 54.6285 88.5642Z" fill="white"/>
<path d="M54.6285 88.5642L54.7036 78.5645L54.6941 78.5644L54.6846 78.5644L54.6285 88.5642ZM47.5931 81.5776L57.5893 81.301L57.5889 81.2874L47.5931 81.5776ZM52.0476 77.168L51.9773 87.1678L51.9853 87.1678L51.9933 87.1679L52.0476 77.168ZM59.1021 84.0783L69.1018 84.003L69.1015 83.9585L69.1007 83.9141L59.1021 84.0783ZM54.6846 78.5644C55.5359 78.5692 56.1188 78.785 56.4016 78.9195C56.6887 79.056 56.8406 79.1879 56.917 79.2639C56.9942 79.3405 57.1147 79.4794 57.2401 79.7364C57.3637 79.9894 57.5676 80.5176 57.5893 81.301L37.597 81.8541C37.733 86.7711 40.1754 90.8246 42.8241 93.455C45.4616 96.0743 49.5728 98.536 54.5724 98.5641L54.6846 78.5644ZM57.5889 81.2874C57.6216 82.4125 57.215 84.0934 55.8068 85.4865C54.4281 86.8506 52.8674 87.174 51.9773 87.1678L52.1179 67.1682C48.513 67.1429 44.6869 68.3539 41.7405 71.269C38.7647 74.2132 37.4882 78.1084 37.5974 81.8678L57.5889 81.2874ZM51.9933 87.1679C50.6234 87.1604 49.9976 86.5842 49.8784 86.4676C49.7633 86.3549 49.1273 85.697 49.1034 84.2424L69.1007 83.9141C69.0195 78.9662 66.6151 74.8627 63.8665 72.1731C61.1139 69.4794 56.9895 67.1947 52.1019 67.1681L51.9933 87.1679ZM49.1024 84.1536C49.0798 81.1529 51.6229 78.5414 54.7036 78.5645L54.5534 98.5639C62.7195 98.6252 69.1626 92.0814 69.1018 84.003L49.1024 84.1536Z" fill="white" mask="url(#path-3-inside-1_21_3751)"/>
<path d="M90.2594 84.2764C90.2592 84.2766 90.2579 84.2721 90.256 84.2623C90.2587 84.2714 90.2596 84.2763 90.2594 84.2764Z" fill="white" stroke="white" stroke-width="10"/>
</svg>
